<svg width="816" height="1081" viewBox="0 0 816 1081" fill="none" xmlns="http://www.w3.org/2000/svg">
<rect width="815.314" height="1081" fill="#704922"/>
<line x1="37.1222" y1="790" x2="780.942" y2="790" stroke="#AC7034" stroke-width="4"/>
<line x1="37.1222" y1="843" x2="780.942" y2="843" stroke="#AC7034" stroke-width="4"/>
<line x1="37.1222" y1="896" x2="780.942" y2="896" stroke="#AC7034" stroke-width="4"/>
<line x1="37.1222" y1="949" x2="780.942" y2="949" stroke="#AC7034" stroke-width="4"/>
<line x1="37.1222" y1="1002" x2="780.942" y2="1002" stroke="#AC7034" stroke-width="4"/>
<line x1="38.4971" y1="207" x2="782.317" y2="207" stroke="#AC7034" stroke-width="4"/>
<line x1="37.1222" y1="260" x2="780.942" y2="260" stroke="#AC7034" stroke-width="4"/>
<line x1="37.1222" y1="313" x2="780.942" y2="313" stroke="#AC7034" stroke-width="4"/>
<line x1="37.1222" y1="366" x2="780.942" y2="366" stroke="#AC7034" stroke-width="4"/>
<line x1="37.1222" y1="419" x2="780.942" y2="419" stroke="#AC7034" stroke-width="4"/>
<line x1="37.1222" y1="472" x2="780.942" y2="472" stroke="#AC7034" stroke-width="4"/>
<line x1="37.1222" y1="525" x2="780.942" y2="525" stroke="#AC7034" stroke-width="4"/>
<line x1="37.1222" y1="578" x2="780.942" y2="578" stroke="#AC7034" stroke-width="4"/>
<line x1="37.1222" y1="631" x2="780.942" y2="631" stroke="#AC7034" stroke-width="4"/>
<line x1="37.1222" y1="684" x2="780.942" y2="684" stroke="#AC7034" stroke-width="4"/>
<line x1="37.1222" y1="737" x2="780.942" y2="737" stroke="#AC7034" stroke-width="4"/>
<line x1="37.1222" y1="737" x2="780.942" y2="737" stroke="#AC7034" stroke-width="4"/>
</svg>
