<svg xmlns="http://www.w3.org/2000/svg" viewBox="0 0 407 79" fill="none">
  <defs>
    <linearGradient id="wood" x1="203.5" y1="9" x2="203.5" y2="68" gradientUnits="userSpaceOnUse">
      <stop stop-color="#D6924A"/>
      <stop offset="0.54" stop-color="#C27731"/>
      <stop offset="1" stop-color="#A95F28"/>
    </linearGradient>
    <filter id="shadow" x="0" y="0" width="407" height="79" filterUnits="userSpaceOnUse" color-interpolation-filters="sRGB">
      <feDropShadow dx="0" dy="5" stdDeviation="4" flood-color="#48240D" flood-opacity="0.28"/>
    </filter>
  </defs>
  <g filter="url(#shadow)">
    <rect x="9" y="9" width="389" height="58" rx="18" fill="url(#wood)"/>
    <rect x="13" y="13" width="381" height="15" rx="10" fill="#F3C57C" opacity="0.28"/>
    <rect x="19" y="21" width="369" height="2.5" rx="1.25" fill="#FBE0AE" opacity="0.34"/>
    <rect x="19" y="55" width="369" height="3" rx="1.5" fill="#7E451E" opacity="0.42"/>
    <rect x="147" y="15" width="2.5" height="46" rx="1.25" fill="#7D471F" opacity="0.33"/>
    <rect x="150.5" y="15" width="1.25" height="46" rx="0.625" fill="#F4C98C" opacity="0.16"/>
    <path d="M23 44c52-12 96 8 144 0 44-7 95-14 133 0 37 14 58 5 90 1" stroke="#7C451F" stroke-opacity="0.18" stroke-width="4" stroke-linecap="round"/>
    <path d="M28 33c31-6 69 2 100-2 34-4 59-13 92-8 42 6 74 13 120 7 18-2 34-7 53-6" stroke="#F0BF7F" stroke-opacity="0.18" stroke-width="3" stroke-linecap="round"/>
  </g>
</svg>
