<svg width="782" height="167" viewBox="0 0 782 167" fill="none" xmlns="http://www.w3.org/2000/svg">
<rect x="782" y="167" width="782" height="167" rx="83.5" transform="rotate(180 782 167)" fill="#E1BA56"/>
<path d="M196.111 103.528C192.559 103.528 189.567 102.04 187.135 99.064C184.703 96.088 183.487 92.44 183.487 88.12C183.487 82.84 184.943 78.392 187.855 74.776C190.799 71.16 194.399 69.352 198.655 69.352C200.319 69.352 201.855 69.528 203.263 69.88C204.703 70.2 205.727 70.536 206.335 70.888L207.199 71.416L203.935 78.088C203.199 77.448 202.159 76.856 200.815 76.312C199.471 75.736 198.255 75.448 197.167 75.448C194.959 75.448 193.183 76.36 191.839 78.184C190.527 80.008 189.871 82.616 189.871 86.008C189.871 89.368 190.559 92.136 191.935 94.312C193.311 96.456 195.183 97.528 197.551 97.528C199.087 97.528 200.479 97.048 201.727 96.088C202.975 95.128 203.855 93.848 204.367 92.248L208.351 94.552C207.295 97.368 205.679 99.576 203.503 101.176C201.327 102.744 198.863 103.528 196.111 103.528ZM209.828 92.968C209.828 88.872 210.932 85.4 213.14 82.552C215.348 79.704 217.924 78.28 220.868 78.28C223.844 78.28 226.148 79.24 227.78 81.16C229.444 83.08 230.276 85.624 230.276 88.792C230.276 93.016 229.204 96.536 227.06 99.352C224.948 102.136 222.276 103.528 219.044 103.528C216.388 103.528 214.18 102.536 212.42 100.552C210.692 98.536 209.828 96.008 209.828 92.968ZM224.9 91.288C224.9 86.648 223.316 84.328 220.148 84.328C216.852 84.328 215.204 86.504 215.204 90.856C215.204 93.128 215.668 94.904 216.596 96.184C217.524 97.464 218.74 98.104 220.244 98.104C221.78 98.104 222.932 97.528 223.7 96.376C224.5 95.192 224.9 93.496 224.9 91.288ZM248.345 90.856C248.345 88.648 248.153 87.176 247.769 86.44C247.385 85.704 246.489 85.336 245.081 85.336C243.673 85.336 242.073 85.896 240.281 87.016V90.52L240.809 101.8L234.377 103L234.953 91.336C234.825 87.048 234.473 83.208 233.897 79.816L239.705 78.568C239.929 80.424 240.089 82.232 240.185 83.992C240.665 83.352 241.209 82.728 241.817 82.12C242.425 81.48 243.385 80.776 244.697 80.008C246.009 79.208 247.385 78.808 248.825 78.808C250.297 78.808 251.529 79.384 252.521 80.536C253.513 81.656 254.009 83.192 254.009 85.144L253.721 90.52L254.249 102.04L247.769 103.24L248.345 90.856ZM273.47 90.856C273.47 88.648 273.278 87.176 272.894 86.44C272.51 85.704 271.614 85.336 270.206 85.336C268.798 85.336 267.198 85.896 265.406 87.016V90.52L265.934 101.8L259.502 103L260.078 91.336C259.95 87.048 259.598 83.208 259.022 79.816L264.83 78.568C265.054 80.424 265.214 82.232 265.31 83.992C265.79 83.352 266.334 82.728 266.942 82.12C267.55 81.48 268.51 80.776 269.822 80.008C271.134 79.208 272.51 78.808 273.95 78.808C275.422 78.808 276.654 79.384 277.646 80.536C278.638 81.656 279.134 83.192 279.134 85.144L278.846 90.52L279.374 102.04L272.894 103.24L273.47 90.856ZM293.315 98.104C294.243 98.104 295.219 97.864 296.243 97.384C297.267 96.904 298.067 96.424 298.643 95.944L299.507 95.224L301.715 97.912C301.395 98.456 300.899 99.08 300.227 99.784C299.555 100.488 298.867 101.096 298.163 101.608C297.491 102.088 296.579 102.536 295.427 102.952C294.307 103.336 293.139 103.528 291.923 103.528C289.331 103.528 287.219 102.552 285.587 100.6C283.955 98.616 283.139 96.072 283.139 92.968C283.139 89.064 284.275 85.64 286.547 82.696C288.819 79.752 291.475 78.28 294.515 78.28C296.851 78.28 298.659 78.936 299.939 80.248C301.251 81.56 301.907 83.4 301.907 85.768C301.907 87.176 301.667 88.776 301.187 90.568L300.227 91.576L288.227 92.68C288.771 96.296 290.467 98.104 293.315 98.104ZM293.315 83.224C291.907 83.224 290.723 83.8 289.763 84.952C288.803 86.072 288.243 87.512 288.083 89.272L296.243 88.264C296.339 87.528 296.387 86.92 296.387 86.44C296.387 84.296 295.363 83.224 293.315 83.224ZM314.353 84.52C312.945 84.52 311.857 85.032 311.089 86.056C310.321 87.048 309.937 88.584 309.937 90.664C309.937 92.744 310.321 94.424 311.089 95.704C311.889 96.952 313.041 97.576 314.545 97.576C315.313 97.576 316.065 97.336 316.801 96.856C317.537 96.376 318.097 95.896 318.481 95.416L319.009 94.648L321.409 97.144C321.313 97.304 321.185 97.528 321.025 97.816C320.897 98.104 320.545 98.616 319.969 99.352C319.425 100.088 318.833 100.744 318.193 101.32C317.585 101.864 316.785 102.376 315.793 102.856C314.801 103.304 313.761 103.528 312.673 103.528C310.273 103.528 308.321 102.552 306.817 100.6C305.313 98.648 304.561 96.104 304.561 92.968C304.561 89.064 305.697 85.64 307.969 82.696C310.241 79.752 312.897 78.28 315.937 78.28C316.865 78.28 317.793 78.424 318.721 78.712C319.649 78.968 320.593 79.384 321.553 79.96L318.193 85.864C317.041 84.968 315.761 84.52 314.353 84.52ZM326.437 79.768V74.536L332.917 73.288L332.293 79.768H338.101L337.573 83.704H332.101L331.861 93.736C331.861 95.24 332.005 96.248 332.293 96.76C332.581 97.24 333.109 97.48 333.877 97.48C334.645 97.48 335.669 97.304 336.949 96.952L337.237 100.36C335.125 102.12 333.269 103 331.669 103C330.069 103 328.757 102.424 327.733 101.272C326.709 100.088 326.197 98.552 326.197 96.664L326.485 91.288L326.437 83.704H323.125L323.653 79.768H326.437ZM350.268 98.104C351.196 98.104 352.172 97.864 353.196 97.384C354.22 96.904 355.02 96.424 355.596 95.944L356.46 95.224L358.668 97.912C358.348 98.456 357.852 99.08 357.18 99.784C356.508 100.488 355.82 101.096 355.116 101.608C354.444 102.088 353.532 102.536 352.38 102.952C351.26 103.336 350.092 103.528 348.876 103.528C346.284 103.528 344.172 102.552 342.54 100.6C340.908 98.616 340.092 96.072 340.092 92.968C340.092 89.064 341.228 85.64 343.5 82.696C345.772 79.752 348.428 78.28 351.468 78.28C353.804 78.28 355.612 78.936 356.892 80.248C358.204 81.56 358.86 83.4 358.86 85.768C358.86 87.176 358.62 88.776 358.14 90.568L357.18 91.576L345.18 92.68C345.724 96.296 347.42 98.104 350.268 98.104ZM350.268 83.224C348.86 83.224 347.676 83.8 346.716 84.952C345.756 86.072 345.196 87.512 345.036 89.272L353.196 88.264C353.292 87.528 353.34 86.92 353.34 86.44C353.34 84.296 352.316 83.224 350.268 83.224ZM362.234 98.248L372.362 83.8L361.754 84.52L362.858 78.472L371.066 79L379.082 78.424L378.266 83.416L368.09 97.912L379.754 97.24L378.698 103.288L370.538 102.76L361.418 103.288L362.234 98.248ZM381.289 93.688L380.905 89.32L392.233 87.304L392.617 91.672L381.289 93.688ZM404.163 97H404.787L406.371 90.424L408.963 78.568L414.915 79.288L411.315 91.192L408.291 102.424L400.083 103.144L397.251 91.48L393.795 79.816L400.323 78.616L402.387 89.176L404.163 97ZM416.641 92.968C416.641 88.872 417.745 85.4 419.953 82.552C422.161 79.704 424.737 78.28 427.681 78.28C430.657 78.28 432.961 79.24 434.593 81.16C436.257 83.08 437.089 85.624 437.089 88.792C437.089 93.016 436.017 96.536 433.873 99.352C431.761 102.136 429.089 103.528 425.857 103.528C423.201 103.528 420.993 102.536 419.233 100.552C417.505 98.536 416.641 96.008 416.641 92.968ZM431.713 91.288C431.713 86.648 430.129 84.328 426.961 84.328C423.665 84.328 422.017 86.504 422.017 90.856C422.017 93.128 422.481 94.904 423.409 96.184C424.337 97.464 425.553 98.104 427.057 98.104C428.593 98.104 429.745 97.528 430.513 96.376C431.313 95.192 431.713 93.496 431.713 91.288ZM446.997 103C445.269 103 443.861 102.44 442.773 101.32C441.717 100.168 441.189 98.664 441.189 96.808L441.477 91.288L440.949 79.768L447.381 78.568L446.757 93.16C446.757 94.536 446.997 95.544 447.477 96.184C447.989 96.824 448.789 97.144 449.877 97.144C450.965 97.144 452.469 96.6 454.389 95.512V92.632L453.861 80.008L460.341 78.808L459.765 90.808L459.813 94.744C459.813 96.792 460.341 98.856 461.397 100.936L456.405 103.144C455.349 101.064 454.709 99.4 454.485 98.152C451.605 101.384 449.109 103 446.997 103ZM472.954 98.536C474.618 98.536 475.45 97.8 475.45 96.328C475.45 95.816 475.082 95.336 474.346 94.888C473.642 94.44 472.762 93.992 471.706 93.544C470.682 93.096 469.642 92.6 468.586 92.056C467.562 91.48 466.682 90.696 465.946 89.704C465.242 88.712 464.89 87.576 464.89 86.296C464.89 84.152 465.834 82.28 467.722 80.68C469.61 79.08 471.786 78.28 474.25 78.28C475.402 78.28 476.522 78.424 477.61 78.712C478.73 78.968 479.802 79.384 480.826 79.96L477.61 85.816C477.386 85.624 477.098 85.384 476.746 85.096C476.394 84.808 475.722 84.44 474.73 83.992C473.77 83.512 472.906 83.272 472.138 83.272C471.402 83.272 470.826 83.448 470.41 83.8C470.026 84.12 469.834 84.584 469.834 85.192C469.834 85.768 470.378 86.36 471.466 86.968C472.586 87.544 473.802 88.088 475.114 88.6C476.426 89.08 477.626 89.896 478.714 91.048C479.834 92.168 480.394 93.512 480.394 95.08C480.394 97.32 479.466 99.288 477.61 100.984C475.786 102.68 473.674 103.528 471.274 103.528C469.738 103.528 468.298 103.192 466.954 102.52C465.642 101.848 464.698 101.176 464.122 100.504L463.258 99.496L467.05 95.08C467.242 95.336 467.514 95.656 467.866 96.04C468.218 96.424 468.906 96.936 469.93 97.576C470.986 98.216 471.994 98.536 472.954 98.536ZM496.803 103C494.915 103 493.363 102.408 492.147 101.224C490.963 100.008 490.371 98.392 490.371 96.376C490.371 94.328 491.299 92.568 493.155 91.096C495.011 89.592 497.267 88.84 499.923 88.84H503.187V88.024C503.187 86.456 502.867 85.384 502.227 84.808C501.587 84.232 500.387 83.944 498.627 83.944C497.891 83.944 497.011 84.104 495.987 84.424C494.995 84.712 493.875 85.176 492.627 85.816L491.235 82.024C492.611 81.064 494.275 80.2 496.227 79.432C498.211 78.664 499.843 78.28 501.123 78.28C506.147 78.28 508.659 80.712 508.659 85.576V94.984C508.659 96.776 509.219 98.776 510.339 100.984L505.251 103.144C504.451 101.608 503.859 100.232 503.475 99.016C501.715 101.672 499.491 103 496.803 103ZM498.819 98.104C500.099 98.104 501.555 97.448 503.187 96.136V92.92C501.491 92.536 500.115 92.344 499.059 92.344C497.043 92.344 496.035 93.24 496.035 95.032C496.035 95.96 496.291 96.712 496.803 97.288C497.315 97.832 497.987 98.104 498.819 98.104ZM522.663 97H523.287L524.871 90.424L527.463 78.568L533.415 79.288L529.815 91.192L526.791 102.424L518.583 103.144L515.751 91.48L512.295 79.816L518.823 78.616L520.887 89.176L522.663 97ZM545.221 98.104C546.149 98.104 547.125 97.864 548.149 97.384C549.173 96.904 549.973 96.424 550.549 95.944L551.413 95.224L553.621 97.912C553.301 98.456 552.805 99.08 552.133 99.784C551.461 100.488 550.773 101.096 550.069 101.608C549.397 102.088 548.485 102.536 547.333 102.952C546.213 103.336 545.045 103.528 543.829 103.528C541.237 103.528 539.125 102.552 537.493 100.6C535.861 98.616 535.045 96.072 535.045 92.968C535.045 89.064 536.181 85.64 538.453 82.696C540.725 79.752 543.381 78.28 546.421 78.28C548.757 78.28 550.565 78.936 551.845 80.248C553.157 81.56 553.813 83.4 553.813 85.768C553.813 87.176 553.573 88.776 553.093 90.568L552.133 91.576L540.133 92.68C540.677 96.296 542.373 98.104 545.221 98.104ZM545.221 83.224C543.813 83.224 542.629 83.8 541.669 84.952C540.709 86.072 540.149 87.512 539.989 89.272L548.149 88.264C548.245 87.528 548.293 86.92 548.293 86.44C548.293 84.296 547.269 83.224 545.221 83.224ZM566.259 84.52C564.851 84.52 563.763 85.032 562.995 86.056C562.227 87.048 561.843 88.584 561.843 90.664C561.843 92.744 562.227 94.424 562.995 95.704C563.795 96.952 564.947 97.576 566.451 97.576C567.219 97.576 567.971 97.336 568.707 96.856C569.443 96.376 570.003 95.896 570.387 95.416L570.915 94.648L573.315 97.144C573.219 97.304 573.091 97.528 572.931 97.816C572.803 98.104 572.451 98.616 571.875 99.352C571.331 100.088 570.739 100.744 570.099 101.32C569.491 101.864 568.691 102.376 567.699 102.856C566.707 103.304 565.667 103.528 564.579 103.528C562.179 103.528 560.227 102.552 558.723 100.6C557.219 98.648 556.467 96.104 556.467 92.968C556.467 89.064 557.603 85.64 559.875 82.696C562.147 79.752 564.803 78.28 567.843 78.28C568.771 78.28 569.699 78.424 570.627 78.712C571.555 78.968 572.499 79.384 573.459 79.96L570.099 85.864C568.947 84.968 567.667 84.52 566.259 84.52ZM596.502 103.528C592.31 103.528 588.934 102.12 586.374 99.304C583.814 96.488 582.534 92.76 582.534 88.12C582.534 82.84 584.134 78.392 587.334 74.776C590.534 71.16 594.47 69.352 599.142 69.352C600.998 69.352 602.71 69.528 604.278 69.88C605.878 70.2 607.014 70.536 607.686 70.888L608.646 71.416L605.862 78.088C604.902 77.448 603.606 76.856 601.974 76.312C600.342 75.736 598.902 75.448 597.654 75.448C595.062 75.448 592.982 76.36 591.414 78.184C589.846 80.008 589.062 82.424 589.062 85.432C589.062 89.496 589.798 92.664 591.27 94.936C592.774 97.208 594.854 98.344 597.51 98.344C599.238 98.344 600.87 98.104 602.406 97.624V90.184H596.214L596.694 85.336H608.214L607.782 93.16L608.118 101.464C603.414 102.84 599.542 103.528 596.502 103.528ZM620.825 78.568L620.249 90.52L620.777 101.8L614.345 103L614.921 91.336L614.393 79.768L620.825 78.568ZM614.057 71.56C614.057 70.472 614.473 69.512 615.305 68.68C616.137 67.816 617.097 67.384 618.185 67.384C619.273 67.384 620.105 67.688 620.681 68.296C621.257 68.872 621.545 69.752 621.545 70.936C621.545 72.12 621.129 73.144 620.297 74.008C619.497 74.84 618.553 75.256 617.465 75.256C616.409 75.256 615.577 74.904 614.969 74.2C614.361 73.496 614.057 72.616 614.057 71.56ZM627.984 79.768V74.536L634.464 73.288L633.84 79.768H639.648L639.12 83.704H633.648L633.408 93.736C633.408 95.24 633.552 96.248 633.84 96.76C634.128 97.24 634.656 97.48 635.424 97.48C636.192 97.48 637.216 97.304 638.496 96.952L638.784 100.36C636.672 102.12 634.816 103 633.216 103C631.616 103 630.304 102.424 629.28 101.272C628.256 100.088 627.744 98.552 627.744 96.664L628.032 91.288L627.984 83.704H624.672L625.2 79.768H627.984ZM669.671 69.64L668.999 90.52L669.575 103H662.855L663.431 91.336L663.335 88.792H650.423L650.375 90.52L650.951 103H644.231L644.807 91.336L644.231 70.84L651.047 69.64L650.567 83.704H663.191L662.855 70.84L669.671 69.64ZM682.075 103C680.347 103 678.939 102.44 677.851 101.32C676.795 100.168 676.267 98.664 676.267 96.808L676.555 91.288L676.027 79.768L682.459 78.568L681.835 93.16C681.835 94.536 682.075 95.544 682.555 96.184C683.067 96.824 683.867 97.144 684.955 97.144C686.043 97.144 687.547 96.6 689.467 95.512V92.632L688.939 80.008L695.419 78.808L694.843 90.808L694.891 94.744C694.891 96.792 695.419 98.856 696.475 100.936L691.483 103.144C690.427 101.064 689.787 99.4 689.563 98.152C686.683 101.384 684.187 103 682.075 103ZM713.504 78.76C715.648 78.76 717.392 79.688 718.736 81.544C720.08 83.4 720.752 85.784 720.752 88.696C720.752 92.888 719.648 96.328 717.44 99.016C715.264 101.672 712.432 103 708.944 103C707.344 103 704.656 102.744 700.88 102.232L701.36 91.336L700.784 67.048L707.36 65.848L706.736 78.232V83.416C707.088 82.904 707.52 82.36 708.032 81.784C708.544 81.208 709.344 80.568 710.432 79.864C711.52 79.128 712.544 78.76 713.504 78.76ZM711.632 85C710.16 85 708.528 85.448 706.736 86.344V90.52L707.024 97.576C708.368 97.736 709.632 97.816 710.816 97.816C713.888 97.816 715.424 95.688 715.424 91.432C715.424 87.144 714.16 85 711.632 85Z" fill="white"/>
<path d="M124.5 139.417V118.25C125.219 111.621 123.363 104.969 119.333 99.7292C134.833 99.7292 150.333 89.1458 150.333 70.625C150.747 64.0104 148.938 57.5017 145.167 52.1042C146.613 46.0188 146.613 39.6688 145.167 33.5833C145.167 33.5833 140 33.5833 129.667 41.5208C116.027 38.875 101.973 38.875 88.3333 41.5208C78 33.5833 72.8333 33.5833 72.8333 33.5833C71.2833 39.6688 71.2833 46.0188 72.8333 52.1042C69.0713 57.4799 67.2454 64.0252 67.6667 70.625C67.6667 89.1458 83.1667 99.7292 98.6667 99.7292C96.6517 102.322 95.1533 105.285 94.275 108.46C93.3967 111.635 93.1383 114.969 93.5 118.25V139.417" stroke="#9F7A29" stroke-width="11" stroke-linecap="round" stroke-linejoin="round"/>
<path d="M93.5 118.25C70.1983 128.833 67.6667 107.667 57.3333 107.667" stroke="#9F7A29" stroke-width="11" stroke-linecap="round" stroke-linejoin="round"/>
</svg>
