<svg width="234" height="112" viewBox="0 0 234 112" fill="none" xmlns="http://www.w3.org/2000/svg">
<path d="M0 0H234V52C234 85.1371 207.137 112 174 112H60C26.8629 112 0 85.1371 0 52V0Z" fill="#E1BA56"/>
<path d="M125.146 66.5734H88.4093" stroke="#9F7A29" stroke-width="8" stroke-linecap="round" stroke-linejoin="round"/>
<path d="M145.555 27.4126H108.818" stroke="#9F7A29" stroke-width="8" stroke-linecap="round" stroke-linejoin="round"/>
<path d="M137.391 78.3217C144.154 78.3217 149.637 73.0618 149.637 66.5734C149.637 60.085 144.154 54.8252 137.391 54.8252C130.628 54.8252 125.146 60.085 125.146 66.5734C125.146 73.0618 130.628 78.3217 137.391 78.3217Z" stroke="#9F7A29" stroke-width="8" stroke-linecap="round" stroke-linejoin="round"/>
<path d="M96.5729 47.2168C103.336 47.2168 108.818 41.6563 108.818 34.7972C108.818 27.9381 103.336 22.3776 96.5729 22.3776C89.8099 22.3776 84.3274 27.9381 84.3274 34.7972C84.3274 41.6563 89.8099 47.2168 96.5729 47.2168Z" stroke="#9F7A29" stroke-width="8" stroke-linecap="round" stroke-linejoin="round"/>
</svg>
